<?xml version="1.0" encoding="UTF-8"?>
<!DOCTYPE svg  PUBLIC '-//W3C//DTD SVG 1.1//EN'  'http://www.w3.org/Graphics/SVG/1.1/DTD/svg11.dtd'>
<svg clip-rule="evenodd" fill-rule="evenodd" stroke-linejoin="round" stroke-miterlimit="2" version="1.1" viewBox="0 0 3e3 2400" xml:space="preserve" xmlns="http://www.w3.org/2000/svg"><g fill="#fff" fill-rule="nonzero"><path d="m1572 1254.3s10.322-45.6 17.582-67.487c6.821-20.998 14.947-41.402 24.26-61.154 2.728-5.932 5.576-11.804 8.541-17.617 4.212-8.186 8.601-16.253 13.168-24.201l0.06-0.059c32.709-56.829 94.129-118.68 95.671-119.01-24.902-4.09-50.34-6.58-76.253-7.232-4.805-0.119-9.609-0.178-14.414-0.178-31.971 0-63.289 2.729-93.718 7.948-125.81 21.472-237.08 85.592-318.4 176.94-0.178-1.008-0.356-2.076-0.474-3.085-2.907-19.158-4.39-38.792-4.39-58.781 0-29.717 3.322-58.604 9.55-86.422 5.516-24.498 13.346-48.105 23.192-70.586 36.183-82.685 100.06-150.42 179.9-191.53-274.39 31.971-487.34 265.2-487.34 548.19-0 21.823 1.246 43.36 3.796 64.476 5.279-0.771 10.618-1.542 15.956-2.254 30.488-3.974 61.629-6.056 93.244-6.056 17.26 0 34.462 0.599 51.426 1.845 0.771 0.059 1.542 0.118 2.373 0.178h0.356c-0.178 0.059-0.356 0.237-0.534 0.474-0.593 0.469-1.246 1.068-1.839 1.661-47.808 43.182-89.685 92.769-124.27 147.4-14.235 22.362-27.225 45.613-38.851 69.577-17.913 36.651-32.683 75.093-44.131 114.95-55.697-84.234-93.955-180.91-109.67-285.01-5.279-35.002-8.007-70.823-8.007-107.24-0-393.32 318.82-712.14 712.14-712.14 88.084-0 172.37 16.015 250.25 45.257-37.132 20.286-70.645 46.385-99.235 77.11-14.295 15.303-27.344 31.734-39.029 49.172-13.168 19.634-24.616 40.572-34.107 62.519 26.989-3.144 54.452-4.745 82.271-4.745 30.547-0 60.62 1.898 90.1 5.635 12.337 1.601 24.616 3.44 36.775 5.694 50.478 9.016 99.116 23.429 145.26 42.588 3.677 1.483 7.355 3.025 10.973 4.686 74.144 32.09 141.7 76.458 200.13 130.55l0.345 0.299-0.345-1e-3c-228.07-0-435.62 105.99-572.32 267.64z"/><path d="m2211.2 1230.3c-6.228-0.178-12.456-0.237-18.684-0.237-24.853 0-49.41 1.246-73.551 3.737-22.777 2.373-45.258 5.754-67.323 10.256 0.771 11.928 1.186 23.91 1.186 36.01 0 15.119-0.593 30.073-1.838 44.902-0 0.593-0.06 1.121-0.119 1.72-0.178 2.129-0.356 4.211-0.593 6.341-16.668 175.52-115.61 327.13-257.84 415.68-21.887 13.768-44.842 25.927-68.687 36.426-6.05 2.729-12.16 5.279-18.328 7.711-63.231 25.322-132.27 39.207-204.58 39.207-4.033 0-8.008-0.065-11.982-0.177-14.591-0.238-28.946-1.133-43.241-2.551-7.117-0.712-14.235-1.548-21.294-2.61-120.53-16.668-228.6-72.311-311.11-153.74-28.708-28.3-54.332-59.677-76.279-93.659 15.422-28.062 32.742-54.926 51.723-80.491v-0.059c16.312-21.947 33.81-43.004 52.553-62.875 49.054 113.06 149.77 198.4 272.44 226.29 12.042 2.729 24.26 4.924 36.657 6.46 16.549 2.141 33.395 3.268 50.537 3.268 11.211 0 22.303-0.474 33.276-1.424 22.836-1.898 45.139-5.753 66.67-11.447 16.075-4.218 31.675-9.437 46.859-15.606 15.956-6.406 31.378-13.874 46.148-22.297 32.86-18.566 62.696-41.817 88.736-68.746 49.053-50.715 84.524-114.6 100.6-185.9 1.483-6.767 2.847-13.642 4.034-20.582 2.728-16.193 4.508-32.742 5.16-49.588-23.311 10.796-45.91 22.831-67.738 36.064-61.688 37.309-117.27 83.688-164.84 137.37-8.542 9.544-16.786 19.337-24.735 29.421-3.321-8.897-6.465-17.913-9.312-27.048-14.829-45.613-25.15-93.184-30.429-142.3v-0.06c23.726-30.073 49.825-58.247 77.94-84.05 12.575-11.625 25.565-22.777 38.971-33.394 15.659-12.516 31.852-24.319 48.579-35.411 31.2-20.879 64.179-39.267 98.641-54.986 40.038-18.387 82.093-33.098 125.75-43.715 1.067-0.356 2.076-0.593 3.143-0.771 6.229-1.542 12.516-2.966 18.863-4.271 1.661-0.415 3.381-0.771 5.041-1.068 46.207-9.49 94.075-14.413 143.07-14.413 7.474-0 14.948 0.118 22.362 0.415 18.032 54.748 29.539 112.46 33.572 172.19z"/></g></svg>
